<?xml version="1.0" encoding="UTF-8" standalone="no"?>
<svg
   id="svg51"
   width="134.99998"
   height="40"
   version="1.1"
   viewBox="0 0 134.99998 40"
   xml:space="preserve"
   sodipodi:docname="google-store-en.svg"
   inkscape:export-filename="../../google-store-en.svg"
   inkscape:export-xdpi="72.00045"
   inkscape:export-ydpi="72.00045"
   inkscape:version="1.2.2 (b0a84865, 2022-12-01)"
   xmlns:inkscape="http://www.inkscape.org/namespaces/inkscape"
   xmlns:sodipodi="http://sodipodi.sourceforge.net/DTD/sodipodi-0.dtd"
   xmlns="http://www.w3.org/2000/svg"
   xmlns:svg="http://www.w3.org/2000/svg"
   xmlns:rdf="http://www.w3.org/1999/02/22-rdf-syntax-ns#"
   xmlns:cc="http://creativecommons.org/ns#"
   xmlns:dc="http://purl.org/dc/elements/1.1/"><defs
     id="defs14" /><sodipodi:namedview
     id="namedview12"
     pagecolor="#ffffff"
     bordercolor="#000000"
     borderopacity="0.25"
     inkscape:showpageshadow="2"
     inkscape:pageopacity="0.0"
     inkscape:pagecheckerboard="0"
     inkscape:deskcolor="#d1d1d1"
     showgrid="false"
     inkscape:zoom="4.4250276"
     inkscape:cx="89.942941"
     inkscape:cy="26.6665"
     inkscape:window-width="1440"
     inkscape:window-height="456"
     inkscape:window-x="0"
     inkscape:window-y="25"
     inkscape:window-maximized="0"
     inkscape:current-layer="svg51" /><metadata
     id="metadata9"><rdf:RDF><cc:Work
         rdf:about=""><dc:format>image/svg+xml</dc:format><dc:type
           rdf:resource="http://purl.org/dc/dcmitype/StillImage" /></cc:Work></rdf:RDF></metadata><path
     id="path11"
     d="M 129.99993,40 H 5.0000694 C 2.2500125,40 0,37.750019 0,35 V 5 C 0,2.2499812 2.2500125,0 5.0000694,0 H 129.99993 C 132.74999,0 135,2.2499812 135,5 v 30 c 0,2.750019 -2.25001,5 -5.00007,5"
     fill="#100f0d"
     stroke-width="0.1" /><path
     id="path13"
     d="M 129.99993,0 H 5.0000694 C 2.2500125,0 0,2.2499812 0,5 v 30 c 0,2.750019 2.2500125,5 5.0000694,5 H 129.99993 C 132.74999,40 135,37.750019 135,35 V 5 c 0,-2.7500188 -2.25001,-5 -5.00007,-5 z m 0,0.79959499 c 2.31602,0 4.20009,1.88442211 4.20009,4.20040501 v 30 c 0,2.315983 -1.884,4.200405 -4.20009,4.200405 H 5.0000694 C 2.6840544,39.200405 0.80043113,37.315983 0.80043113,35 V 5 c 0,-2.3159829 1.88362327,-4.20040501 4.19963827,-4.20040501 H 129.99993"
     fill="#a2a2a1"
     stroke-width="0.1" /><path
     id="path35"
     d="m 106.93653,30 h 1.866 V 17.497937 h -1.866 z m 16.80741,-7.9982 -2.13901,5.419936 h -0.064 L 119.32092,22.0018 h -2.01 l 3.33005,7.575189 -1.899,4.213981 h 1.94603 l 5.1311,-11.788795 z m -10.58291,6.578114 c -0.61001,0 -1.46301,-0.305902 -1.46301,-1.061726 0,-0.964899 1.06204,-1.334808 1.97805,-1.334808 0.82001,0 1.20702,0.176599 1.70504,0.418 -0.145,1.158179 -1.14199,1.978474 -2.22001,1.978474 z m 0.226,-6.851571 c -1.35103,0 -2.75005,0.595298 -3.32908,1.914123 l 1.65607,0.691397 c 0.354,-0.691397 1.01299,-0.916373 1.70504,-0.916373 0.96499,0 1.94602,0.578497 1.962,1.608191 v 0.1285 c -0.33801,-0.193002 -1.06204,-0.482397 -1.94603,-0.482397 -1.78604,0 -3.60306,0.9808 -3.60306,2.814371 0,1.672691 1.46406,2.750393 3.10407,2.750393 1.25405,0 1.947,-0.562919 2.37999,-1.222605 h 0.065 v 0.965574 h 1.80202 v -4.79337 c 0,-2.21953 -1.65801,-3.457811 -3.79605,-3.457811 z m -11.53245,1.79532 h -2.65405 v -4.285082 h 2.65405 c 1.39506,0 2.18701,1.154729 2.18701,2.142504 0,0.968799 -0.79203,2.142578 -2.18701,2.142578 z m -0.048,-6.025426 H 97.335358 V 30.0003 h 1.865247 v -4.736293 h 2.606055 c 2.06805,0 4.10108,-1.496888 4.10108,-3.882472 0,-2.385135 -2.03303,-3.882773 -4.10108,-3.882773 z M 77.425383,28.582015 c -1.28915,0 -2.368067,-1.079727 -2.368067,-2.561314 0,-1.498838 1.078917,-2.59379 2.368067,-2.59379 1.272725,0 2.271539,1.095027 2.271539,2.59379 0,1.481587 -0.998814,2.561314 -2.271539,2.561314 z m 2.142609,-5.880372 h -0.0645 c -0.418711,-0.499303 -1.224647,-0.950424 -2.239062,-0.950424 -2.127007,0 -4.076258,1.869122 -4.076258,4.269482 0,2.384009 1.949251,4.236705 4.076258,4.236705 1.014415,0 1.820321,-0.451211 2.239062,-0.966399 h 0.0645 v 0.611701 c 0,1.627765 -0.869884,2.497262 -2.271539,2.497262 -1.143419,0 -1.852347,-0.821496 -2.142608,-1.514138 l -1.626888,0.676562 c 0.466803,1.127278 1.706991,2.513313 3.769571,2.513313 2.191436,0 4.044158,-1.289132 4.044158,-4.430886 V 22.00888 h -1.772619 z m 3.061769,7.297982 h 1.868023 V 17.497562 h -1.868023 z m 4.62318,-4.124203 c -0.04808,-1.643366 1.273399,-2.480912 2.223461,-2.480912 0.741411,0 1.369103,0.370697 1.579337,0.901972 z m 5.799675,-1.417986 C 92.698317,23.507463 91.61901,21.751219 89.4119,21.751219 c -2.191436,0 -4.011756,1.723768 -4.011756,4.253131 0,2.384385 1.80472,4.253131 4.220789,4.253131 1.949251,0 3.077444,-1.191779 3.544938,-1.884797 L 91.715839,27.40591 c -0.483506,0.709 -1.143719,1.17618 -2.094906,1.17618 -0.949987,0 -1.626964,-0.435101 -2.061305,-1.288983 l 5.686346,-2.351983 z M 47.744104,23.056251 v 1.804321 h 4.317543 c -0.1289,1.014925 -0.467208,1.755868 -0.982838,2.271506 -0.62851,0.628104 -1.611288,1.321083 -3.33478,1.321083 -2.658328,0 -4.736434,-2.142578 -4.736434,-4.800795 0,-2.658216 2.078106,-4.801095 4.736434,-4.801095 1.433906,0 2.480872,0.563999 3.254227,1.288983 l 1.273099,-1.273007 c -1.079742,-1.030901 -2.513347,-1.820296 -4.527326,-1.820296 -3.641541,0 -6.702485,2.964374 -6.702485,6.605415 0,3.640666 3.060944,6.605115 6.702485,6.605115 1.965227,0 3.447659,-0.644506 4.607429,-1.852696 1.192247,-1.19223 1.562911,-2.867622 1.562911,-4.221105 0,-0.418398 -0.0325,-0.805071 -0.0969,-1.127429 z m 11.079431,5.525764 c -1.28915,0 -2.400843,-1.063302 -2.400843,-2.577665 0,-1.530488 1.111693,-2.577364 2.400843,-2.577364 1.288625,0 2.400318,1.046876 2.400318,2.577364 0,1.514363 -1.111693,2.577665 -2.400318,2.577665 z m 0,-6.830796 c -2.352841,0 -4.269691,1.788194 -4.269691,4.253131 0,2.448811 1.91685,4.253131 4.269691,4.253131 2.351942,0 4.269166,-1.80432 4.269166,-4.253131 0,-2.464937 -1.917224,-4.253131 -4.269166,-4.253131 z m 9.313112,6.830796 c -1.28825,0 -2.400318,-1.063302 -2.400318,-2.577665 0,-1.530488 1.112143,-2.577364 2.400318,-2.577364 1.28915,0 2.400469,1.046876 2.400469,2.577364 0,1.514363 -1.111319,2.577665 -2.400469,2.577665 z m 0,-6.830796 c -2.351941,0 -4.268791,1.788194 -4.268791,4.253131 0,2.448811 1.91685,4.253131 4.268791,4.253131 2.352842,0 4.269691,-1.80432 4.269691,-4.253131 0,-2.464937 -1.916849,-4.253131 -4.269691,-4.253131"
     fill="#ffffff"
     stroke-width="0.115469" /><path
     id="path37"
     d="M 20.714681,19.423986 10.068767,30.723768 c 4e-4,0.0023 0.0012,0.0043 0.0016,0.0067 0.326502,1.227031 1.447256,2.130504 2.777358,2.130504 0.53171,0 1.030915,-0.143749 1.459031,-0.3961 l 0.034,-0.01992 11.983966,-6.915173 -5.609468,-6.105902"
     fill="#eb3131"
     stroke-width="0.1" /><path
     id="path39"
     d="m 31.485849,17.500188 -0.0102,-0.007 -5.173851,-2.999325 -5.829002,5.18683 5.849253,5.848421 5.14655,-2.969474 c 0.902285,-0.4871 1.514834,-1.438311 1.514834,-2.535213 0,-1.089028 -0.604306,-2.035476 -1.497659,-2.524188"
     fill="#f6b60b"
     stroke-width="0.1" /><path
     id="path41"
     d="m 10.067267,9.2769819 c -0.064,0.2360009 -0.097639,0.4831996 -0.097639,0.7399011 v 19.967749 c 0,0.256222 0.033241,0.50426 0.098044,0.739421 L 21.0811,19.713028 10.067672,9.2772669"
     fill="#5778c5"
     stroke-width="0.1" /><path
     id="path43"
     d="M 20.793434,20.00075 26.304123,14.491787 14.333657,7.5515638 C 13.89855,7.2909623 13.390721,7.140561 12.847325,7.140561 c -1.330102,0 -2.452371,0.9051226 -2.778933,2.1335784 -4.01e-4,0.0012 -4.01e-4,0.00202 -4.01e-4,0.00307 L 20.793408,20.000983"
     fill="#3bad49"
     stroke-width="0.1" /><path
     id="path33"
     d="M 47.393968,9.7809945 H 44.47673 v 0.7219005 h 2.186035 c -0.0594,0.589102 -0.293802,1.051601 -0.689112,1.387535 -0.395303,0.336001 -0.900035,0.504702 -1.496908,0.504702 -0.654708,0 -1.209422,-0.228103 -1.664015,-0.681197 -0.445405,-0.462499 -0.671906,-1.034426 -0.671906,-1.7234677 0,-0.6889973 0.226501,-1.2609316 0.671906,-1.7233931 0.454608,-0.4531014 1.009314,-0.679697 1.664015,-0.679697 0.336005,0 0.656305,0.057804 0.949987,0.1843996 0.293801,0.1264982 0.529708,0.3030976 0.71411,0.5297007 L 46.695548,7.7467787 C 46.443944,7.4607815 46.125241,7.2420761 45.729811,7.0826821 45.334508,6.9232806 44.922029,6.8467787 44.476662,6.8467787 c -0.873409,0 -1.613988,0.3030975 -2.218736,0.9078227 -0.604711,0.6062026 -0.907835,1.3531088 -0.907835,2.2358809 0,0.8827717 0.303101,1.6312907 0.907835,2.2360307 0.604711,0.604598 1.345327,0.907823 2.218736,0.907823 0.917211,0 1.648489,-0.293797 2.211011,-0.890722 0.495304,-0.496798 0.748409,-1.16868 0.748409,-2.009301 0,-0.142203 -0.0172,-0.293797 -0.0422,-0.4531985 z m 1.130144,-2.79997 V 12.99985 h 3.514037 v -0.739098 h -2.740607 v -1.909323 h 2.471946 V 9.6295282 H 49.297542 V 7.7217055 h 2.740607 V 6.981002 Z M 56.96569,7.721728 V 6.9810245 H 52.829654 V 7.721728 h 1.681341 v 5.278107 h 0.77343 V 7.721728 Z m 3.744521,-0.7407035 h -0.77343 V 12.99985 h 0.77343 z M 65.815359,7.721728 V 6.9810245 h -4.13596 V 7.721728 h 1.68119 v 5.278107 h 0.77343 V 7.721728 Z m 7.804804,0.042196 C 73.023252,7.1498312 72.292011,6.8467262 71.418527,6.8467262 c -0.874984,0 -1.606187,0.3030975 -2.203135,0.9078227 -0.596911,0.5969024 -0.890585,1.3453086 -0.890585,2.2358809 0,0.8905722 0.293704,1.6390912 0.890585,2.2360312 0.59691,0.604597 1.328151,0.907822 2.203135,0.907822 0.865609,0 1.604688,-0.303202 2.201636,-0.907822 0.596911,-0.596903 0.890585,-1.345384 0.890585,-2.2360312 0,-0.8827721 -0.293704,-1.6297158 -0.890585,-2.2265058 z m -3.85005,0.5030976 c 0.445308,-0.4531014 0.992214,-0.679697 1.648414,-0.679697 0.654708,0 1.201622,0.2266031 1.639114,0.679697 0.445307,0.4453011 0.664008,1.0264756 0.664008,1.7233931 0,0.6985003 -0.218701,1.2781073 -0.664008,1.7234683 -0.437507,0.453101 -0.984413,0.681197 -1.639114,0.681197 -0.656208,0 -1.203121,-0.228103 -1.648414,-0.681197 -0.436007,-0.454699 -0.654708,-1.024976 -0.654708,-1.7234683 0,-0.6969025 0.218701,-1.2687318 0.654708,-1.7233931 z m 6.578206,0.9843996 -0.03278,-1.161029 h 0.03278 l 3.059444,4.9093978 h 0.807781 V 6.9809645 h -0.77343 v 3.5218635 l 0.03278,1.161029 h -0.03278 L 76.517076,6.9809645 H 75.574889 V 12.99979 h 0.77343 z"
     fill="#ffffff"
     stroke="#ffffff"
     stroke-miterlimit="10"
     stroke-width="0.230937" /></svg>
